# xmcd
#
# Track frame offsets:
#	150
#	17005
#	38070
#	61787
#	78762
#	94167
#	112930
#	137652
#	160225
#	183530
#	201922
#	231135
#	241355
#	259442
#
# Disc length: 3687 seconds
#
# Revision: 3
# Processed by: cddbd v1.4PL0 Copyright (c) Steve Scherf et al.
# Submitted via: CDmax 1.9
#
DISCID=b30e650e
DTITLE=Dave Hole - Short Fuse Blues
DYEAR=1992
DGENRE=Blues
TTITLE0=Keep Your Motor Running
TTITLE1=The Bottle
TTITLE2=Short Fuse Blues
TTITLE3=Every Girl I See
TTITLE4=Something Fine
TTITLE5=Albatross
TTITLE6=Night Cat
TTITLE7=Tore Down
TTITLE8=The Sun Is Shining
TTITLE9=Business Man
TTITLE10=Take a Swing
TTITLE11=Dark Was the Night (Cold Was the Ground)
TTITLE12=Truckload of Lovin'
TTITLE13=Purple Haze
EXTD=LABEL =Alligator Records and Artist Mgmt., Inc.\nID =ALCD4807\nUPC =0145
EXTD=51-4807-23\nCOPYRIGHT =1992
EXTT0=
EXTT1=
EXTT2=
EXTT3=
EXTT4=
EXTT5=
EXTT6=
EXTT7=
EXTT8=
EXTT9=
EXTT10=
EXTT11=
EXTT12=
EXTT13=
PLAYORDER=
